<?xml version="1.0" encoding="UTF-8"?>
<!-- Generated by Pixelmator Pro 3.6.17 -->
<svg width="1280" height="720" viewBox="0 0 1280 720" xmlns="http://www.w3.org/2000/svg">
    <path id="Shape" fill="#000000" fill-rule="evenodd" stroke="none" d="M 307.403778 480.655029 C 292.226379 481.172913 288.142029 481.038818 287.501007 480.001587 C 286.996155 479.184753 287.361908 478.208527 288.478729 477.391907 C 289.460083 476.674316 292.566345 475.623077 295.3815 475.055847 C 298.196686 474.488586 304.549988 473.373077 309.5 472.576935 C 314.450012 471.780792 322.4375 470.650269 327.25 470.064697 C 332.0625 469.479126 339.712494 468.55423 344.25 468.009399 C 348.787506 467.464539 357 466.561218 362.5 466.002014 C 368 465.44278 380.149994 464.307526 389.5 463.479218 C 398.850006 462.650879 418.200012 461.092773 432.5 460.016724 C 446.799988 458.940643 468.849976 457.369812 481.5 456.526001 C 494.150024 455.68219 516.538025 454.329224 531.251221 453.519409 C 545.964417 452.709595 567.339417 451.588135 578.751221 451.027252 C 590.163025 450.46637 610.299988 449.564392 623.5 449.022827 C 636.700012 448.481262 659.650024 447.565918 674.5 446.988678 C 689.349976 446.411438 717.025024 445.504578 736 444.97345 C 754.974976 444.442322 801.325012 443.70575 839 443.336639 C 883.748047 442.898224 921.780396 443.072388 948.684143 443.838898 C 971.335449 444.484253 990.572998 445.282654 991.434204 445.613098 C 992.29541 445.943604 993 446.571442 993 447.008362 C 993 447.445251 987.9375 448.062317 981.75 448.379578 C 975.5625 448.696899 941.025024 449.653198 905 450.5047 C 868.974976 451.356262 826 452.489105 809.5 453.022156 C 793 453.555206 766.674988 454.445618 751 455.000793 C 735.325012 455.55603 711.137939 456.469299 697.251038 457.030273 C 683.364075 457.591309 657.489075 458.717468 639.751038 459.532898 C 622.012939 460.348358 591.299988 461.91272 571.5 463.009338 C 551.700012 464.105896 522.112915 465.908508 505.750916 467.015137 C 489.388855 468.121765 460.701477 470.147522 442.001129 471.516846 C 423.300751 472.886169 389.662842 475.355804 367.250214 477.004944 C 344.837616 478.654114 317.906708 480.296631 307.403778 480.655029 Z M 430 446.507202 C 426.424988 446.664246 421.035919 446.147583 418.024231 445.35907 C 415.012573 444.570587 410.619385 442.794922 408.261597 441.413147 C 405.903809 440.031403 401.989105 436.828735 399.562286 434.296112 C 397.135468 431.763489 393.966461 427.517059 392.520081 424.859589 C 391.0737 422.202118 388.774048 416.759064 387.409698 412.763916 C 386.045349 408.768768 384.301208 402.575012 383.533813 399 C 382.766388 395.424988 381.675293 389.575012 381.1091 386 C 380.542908 382.424988 379.797821 376.433441 379.453339 372.685425 C 379.023071 368.00412 378.360229 365.691711 377.335938 365.298676 C 376.515869 364.983978 375.242798 365.350555 374.506897 366.113251 C 373.770966 366.875977 370.386475 372.674988 366.985748 379 C 363.585052 385.325012 358.307556 395 355.257996 400.5 C 352.208435 406 346.87204 415.257965 343.399353 421.073212 C 339.811035 427.082153 334.954071 433.640045 332.148193 436.264618 C 328.617889 439.566803 325.571899 441.359283 321.459015 442.554932 C 318.114136 443.527313 313.910706 444.024597 311.414551 443.743256 C 309.053711 443.477142 305.407104 442.382233 303.311035 441.310059 C 301.167145 440.21347 298.076385 437.261017 296.245728 434.560913 C 294.455872 431.921051 291.899231 426.102386 290.564331 421.630585 C 289.229401 417.158752 287.543823 409.225006 286.818604 404 C 285.971619 397.897858 285.5 383.948792 285.5 365 C 285.5 347.429321 286.017548 331.051788 286.779877 324.5 C 287.483795 318.450012 288.547882 309.674988 289.144501 305 C 289.741119 300.325012 291.097473 291.325012 292.1586 285 C 293.219727 278.674988 295.159943 269.130554 296.470184 263.7901 C 297.780426 258.449646 299.452087 252.824646 300.184967 251.2901 C 301.385315 248.776825 302.091064 248.470123 307.298309 248.198914 C 311.285919 247.991241 315.005524 248.567322 319.289551 250.056122 C 322.705292 251.243164 327.524994 253.349792 330 254.737518 C 332.475006 256.125275 335.932373 258.611115 337.683075 260.261627 C 339.433746 261.91214 341.407532 264.569641 342.069244 266.167206 C 342.774811 267.870575 343.049408 271.22818 342.733246 274.285919 C 342.436707 277.153656 341.485748 283.549988 340.619995 288.5 C 339.754242 293.450012 338.183594 303.125 337.129669 310 C 336.075745 316.875 334.719727 327 334.116272 332.5 C 333.512848 338 332.564819 347.415649 332.009552 353.423676 C 331.454315 359.431702 331 368.577209 331 373.747009 C 331 381.940063 331.211456 383.105133 332.647339 382.823334 C 333.589478 382.638397 338.712921 374.679657 344.61557 364.231903 C 350.292053 354.184418 359.302338 338.209442 364.638428 328.731903 C 369.974518 319.254364 377.076019 307.090729 380.419556 301.70163 C 383.763062 296.312531 387.623962 291.1521 388.999329 290.234039 C 390.91391 288.955994 393.726501 288.577209 401 288.617859 C 408.434204 288.659393 411.784546 289.170044 416.407318 290.966156 C 419.656342 292.228546 423.930756 294.742493 425.906067 296.552704 C 429.497498 299.844025 429.497498 299.844025 429.797485 312.171997 C 429.962494 318.952393 430.542175 336.200012 431.085663 350.5 C 431.629181 364.799988 432.633911 380.654175 433.31842 385.731506 C 434.00293 390.808838 435.13562 395.533844 435.83548 396.231506 C 436.863953 397.256744 437.485474 397.020569 439.076447 395 C 440.159119 393.625 446.064331 384.174988 452.199188 374 C 458.333984 363.825012 468.30426 347.399994 474.355286 337.5 C 480.406372 327.600006 488.302429 315.02536 491.9021 309.556396 C 495.501831 304.087402 500.409058 296.94751 502.807129 293.690002 C 505.855164 289.549561 507.483521 288.083527 508.218323 288.818329 C 508.953125 289.553101 508.765137 291.1297 507.593689 294.057434 C 506.123413 297.732025 506.106873 298.169098 507.458984 297.622711 C 508.306519 297.280212 509.726929 296.70694 510.615417 296.348724 C 511.898682 295.83136 512.092896 296.131989 511.559937 297.811127 C 511.190979 298.973633 509.181885 302.979218 507.095215 306.712402 C 505.008606 310.445587 501.601501 316.424988 499.523926 320 C 497.446289 323.575012 495.511841 327.399994 495.225037 328.5 C 494.749451 330.324402 494.935852 330.287476 497.3479 328.079376 C 498.802246 326.748047 500.283264 325.949951 500.63916 326.305847 C 500.995056 326.661713 500.372864 329.100983 499.256531 331.72644 C 498.140198 334.351898 495.003906 340.325012 492.287048 345 C 489.570129 349.674988 484.531128 358.599548 481.089233 364.832306 C 477.6474 371.065063 475.062012 376.395355 475.343994 376.677338 C 475.625977 376.959351 479.826477 371.073395 484.678345 363.597443 C 489.530273 356.12149 497.325012 343.874084 502 336.381012 C 506.674988 328.887909 513.562988 318.022308 517.306641 312.235229 C 522.252136 304.590271 524.413696 302.013672 525.211975 302.811981 C 526.010254 303.610291 525.737976 305.655334 524.216125 310.291229 C 523.064087 313.800507 519.248657 322.933075 515.737305 330.585876 C 512.225952 338.238647 505.242676 352.600006 500.218872 362.5 C 495.195129 372.399994 488.426941 385.255432 485.178528 391.067627 C 481.930054 396.879822 476.398499 406.250854 472.886108 411.892181 C 469.373779 417.533478 463.669556 425.736847 460.210083 430.121887 C 456.741333 434.518646 451.814453 439.430084 449.225464 441.071991 C 446.643372 442.709473 442.723846 444.538055 440.515381 445.135498 C 438.306915 445.73291 433.575012 446.350159 430 446.507202 Z M 566.892212 429.966492 C 559.073853 429.941315 555.013977 429.422699 550.5 427.872559 C 547.200012 426.739319 541.764465 423.861572 538.421021 421.47757 C 535.054932 419.077423 530.717346 414.768188 528.701416 411.821533 C 526.699036 408.894684 523.924316 403.45816 522.535339 399.740356 C 521.146362 396.022522 519.598999 389.307617 519.096741 384.818329 C 518.566101 380.075745 518.544556 372.85257 519.045227 367.577972 C 519.519165 362.585083 520.607239 355.48584 521.463257 351.80188 C 522.319275 348.11792 524.417175 341.142944 526.125366 336.30188 C 527.833557 331.460846 530.933228 324.125 533.013611 320 C 535.093994 315.875 539.61676 308.544128 543.06427 303.709137 C 546.51178 298.874176 552.172485 292.261627 555.643555 289.014587 C 559.114624 285.767578 564.096863 281.855438 566.71521 280.321014 C 570.508667 278.0979 572.720032 277.527924 577.599976 277.515533 C 581.128174 277.506592 586.218323 278.34613 589.608154 279.496063 C 593.242004 280.72879 596.878174 282.878143 599.116516 285.116486 C 602.289185 288.289154 603.473633 288.7948 608.620422 289.173645 C 612.113037 289.430756 616.927612 290.721497 620.479736 292.353088 C 623.768616 293.863739 629.096375 297.393188 632.319214 300.19635 C 638.178955 305.292999 638.178955 305.292999 648.339478 304.595886 C 653.927734 304.212494 662.221558 303.537506 666.770142 303.095947 C 671.318726 302.654358 675.294312 302.039063 675.604797 301.728577 C 675.915283 301.418091 677.972473 295.389648 680.176392 288.332031 C 682.38031 281.274414 688.271667 261.841644 693.268372 245.148071 C 701.119812 218.917023 702.668457 214.652557 704.674622 213.738495 C 706.352295 212.97406 708.590698 213.036285 712.747986 213.962891 C 715.91156 214.66803 721.584167 216.28595 725.35376 217.558258 C 729.123352 218.830566 733.996277 221.055298 736.182495 222.502075 C 738.368713 223.948853 740.783203 226.630249 741.548035 228.460724 C 742.838074 231.548248 742.673279 232.646118 739.268616 243.64444 C 737.250122 250.165009 731.184326 268.436005 725.789063 284.246704 C 720.393799 300.057373 712.555603 323.007385 708.37085 335.246704 C 704.186096 347.486023 699.448547 362.674988 697.842957 369 C 695.752014 377.236908 695.005432 382.34436 695.211853 387 C 695.5 393.5 695.5 393.5 698.733704 393.354309 C 700.766296 393.262756 704.716064 391.378174 709.367188 388.28067 C 713.437073 385.570282 722.556885 378.574585 729.633484 372.734711 C 736.710083 366.894806 745.931274 358.602936 750.125061 354.30835 C 757.750183 346.5 757.750183 346.5 762.041931 332 C 764.402344 324.024994 766.536011 316.487488 766.783386 315.25 C 767.231079 313.010529 767.172913 312.999939 754.366577 312.98526 C 746.146973 312.97583 740.631897 312.524384 739.096375 311.73526 C 737.774414 311.055878 735.804749 309.30365 734.719421 307.841431 C 733.365112 306.016937 732.588318 302.978333 732.243225 298.15567 C 731.741577 291.144501 731.74762 291.124084 734.871948 289.22406 C 736.594299 288.176666 741.040161 286.820313 744.751709 286.20993 C 748.463257 285.599579 754.424988 284.659698 758 284.121307 C 761.575012 283.582916 767.282104 282.844696 770.682434 282.480865 C 774.082764 282.117004 777.564026 281.297455 778.418579 280.659668 C 779.273193 280.021851 782.901917 271.174988 786.482544 261 C 790.06311 250.825012 793.662048 241.037506 794.480164 239.25 C 795.80127 236.363464 796.42041 236 800.016052 236 C 802.242737 236 807.537476 237.348846 811.782288 238.997406 C 816.027039 240.645996 821.855164 243.350922 824.733704 245.008331 C 827.921875 246.844055 830.191284 248.914063 830.540344 250.304749 C 830.885498 251.679962 829.685059 256.533447 827.521179 262.51123 C 825.545471 267.969177 823.656799 273.519226 823.324158 274.844666 C 822.719299 277.254578 822.719299 277.254578 841.348206 276.519318 C 851.594116 276.114929 867.803101 276.110107 877.368103 276.508575 C 886.933167 276.907074 895.375854 277.630646 896.129578 278.116547 C 897.287842 278.86322 897.288391 279.136414 896.133301 279.881165 C 895.381592 280.365784 888.18158 281.27655 880.133301 281.90509 C 872.084961 282.53363 862.488342 283.487122 858.807373 284.023926 C 855.126404 284.56076 849.72644 285.006897 846.807373 285.01532 C 843.888306 285.023743 840.861206 285.434967 840.080444 285.929138 C 839.217712 286.475189 851.181946 286.959503 870.580444 287.163818 C 892.489746 287.394562 903.118042 287.864807 904.470703 288.663269 C 906.272827 289.72702 906.14447 289.871918 902.970703 290.35672 C 901.061829 290.648315 894.549988 291.465485 888.5 292.172638 C 882.450012 292.879822 878.400024 293.641113 879.5 293.864441 C 880.599976 294.087738 882.400024 294.377167 883.5 294.507599 C 884.599976 294.638031 887.412476 294.802185 889.75 294.872375 C 892.087524 294.942566 894 295.367432 894 295.816528 C 894 296.265625 891.1875 297.147247 887.75 297.775635 C 884.3125 298.404053 877.450012 299.400208 872.5 299.989319 C 867.549988 300.57843 860.125 301.472595 856 301.976349 C 851.875 302.480103 843.549988 303.440735 837.5 304.111115 C 831.450012 304.781464 823.128052 305.819244 819.006775 306.417297 C 811.809448 307.461731 811.450256 307.642761 809.910095 311.002319 C 809.028137 312.926056 805.780396 322.149994 802.69281 331.5 C 799.605225 340.850006 795.657898 353.899994 793.921021 360.5 C 791.711243 368.897125 790.610229 375.721802 790.253906 383.230713 C 789.82428 392.284027 790.014282 394.372894 791.469543 396.593872 C 793.062866 399.025635 793.625366 399.194183 798.847168 398.804901 C 802.334351 398.544952 807.564941 397.047516 812.5 394.896301 C 816.900024 392.978363 826.799988 387.579254 834.5 382.898285 C 842.200012 378.217316 857.633484 368.21167 868.796631 360.663513 C 879.959778 353.115387 889.529419 347.209167 890.0625 347.538635 C 890.640076 347.895599 890.318176 349.402039 889.265869 351.266632 C 888.294617 352.987549 880.974976 360.964691 873 368.993591 C 865.025024 377.022491 854.224976 386.993347 849 391.151093 C 843.775024 395.308807 835.224976 401.518921 830 404.951355 C 824.775024 408.383789 816.450012 413.156555 811.5 415.557556 C 806.549988 417.958527 799.799988 420.631683 796.5 421.497894 C 793.200012 422.364075 787.773804 423.33844 784.441772 423.663116 C 780.286804 424.067932 776.653809 423.75058 772.87793 422.652893 C 769.849915 421.772614 765.588257 419.759979 763.407715 418.180389 C 761.033142 416.460236 758.186401 412.940369 756.309875 409.404175 C 754.58667 406.156891 752.655273 400.575012 752.017944 397 C 751.380615 393.424988 750.553345 389.019836 750.179565 387.210785 C 749.5 383.92157 749.5 383.92157 742.758423 389.910889 C 739.050537 393.205017 732.975525 398.352112 729.258423 401.348877 C 725.54126 404.345612 718.761841 409.063538 714.192932 411.83313 C 709.624084 414.602722 702.649048 418.129517 698.692932 419.67041 C 692.90918 421.923218 689.885498 422.474823 683.259033 422.486053 C 676.480103 422.497528 674.218628 422.076477 670.51239 420.112823 C 667.762329 418.655792 664.827942 415.945923 662.981323 413.158081 C 661.317322 410.645905 659.290771 406.350952 658.477905 403.613739 C 657.52948 400.419983 657.00116 394.313263 657.003174 386.568512 C 657.004944 379.930817 657.681213 370.642365 658.505981 365.92746 C 659.33075 361.212555 661.799561 350.412567 663.992188 341.92746 C 666.184814 333.442352 668.279785 325.415771 668.647705 324.090607 C 669.316162 321.682861 669.312256 321.681641 662.908325 322.30246 C 659.383728 322.644104 654.327271 323.231842 651.671692 323.60849 C 647.359619 324.220093 646.910461 324.518158 647.470215 326.396667 C 647.814941 327.553497 648.367615 333.168427 648.698425 338.874268 C 649.074341 345.357727 648.845459 351.715057 648.088135 355.825195 C 647.421631 359.442383 646.000305 364.898956 644.929565 367.950958 C 643.858887 371.00293 641.365784 376.649994 639.389343 380.5 C 637.412964 384.350006 634.216797 389.75 632.286926 392.5 C 630.356995 395.25 625.565369 400.801819 621.638977 404.837372 C 617.712524 408.872955 612.025024 413.873871 609 415.950531 C 605.974976 418.027191 600.799988 421.086365 597.5 422.748657 C 594.200012 424.41098 588.301514 426.722565 584.392212 427.885529 C 579.092346 429.462158 574.640991 429.991486 566.892212 429.966492 Z M 578.5 402.4841 C 580.700012 402.192352 584.666077 400.845825 587.313416 399.491791 C 589.960815 398.137787 594.100891 395.412384 596.51355 393.435364 C 598.92627 391.458344 603.180542 387.064117 605.967468 383.67041 C 608.754456 380.276672 613.067566 373.573151 615.552185 368.773651 C 618.036865 363.974152 620.954041 356.589691 622.034851 352.363678 C 623.115662 348.137695 624 341.579712 624 337.790375 C 624 333.713867 623.405334 329.750763 622.54364 328.084442 C 621.253906 325.590271 620.367615 325.190948 614.79364 324.59256 C 611.332153 324.220917 605.718689 323.009277 602.319336 321.899994 C 598.919983 320.79068 594.323608 318.568268 592.105225 316.961243 C 588.071716 314.039398 588.071716 314.039398 585.655273 317.269714 C 584.326233 319.046356 581.477844 323.649994 579.325562 327.5 C 577.173218 331.350006 573.547852 338.774994 571.269104 344 C 568.990417 349.225006 566.174255 356.875 565.011108 361 C 563.8479 365.125 562.627625 372.676727 562.299316 377.781616 C 561.923462 383.625641 562.127686 388.482849 562.850769 390.89624 C 563.482361 393.004364 564.973694 395.968109 566.164734 397.48233 C 567.355835 398.996552 569.718567 400.860748 571.415161 401.624969 C 573.257446 402.454803 576.111145 402.800873 578.5 402.4841 Z M 436 278.672058 C 432.975006 278.842102 429.600006 278.584686 428.5 278.099976 C 427.399994 277.615295 425.375 276.00824 424 274.528809 C 421.710663 272.065552 421.5 271.066193 421.5 262.669434 C 421.5 254.148712 421.763336 252.948517 425.222046 245.705078 C 427.60788 240.708496 431.018372 235.735077 434.722046 231.85144 C 437.899933 228.519135 442.477783 224.633362 444.89505 223.216339 C 447.92926 221.437683 450.820343 220.618286 454.232178 220.569977 C 458.342651 220.51178 459.515991 220.920685 461.205139 223 C 462.934814 225.12912 463.15033 226.423309 462.658081 231.72406 C 462.34021 235.147308 461.331848 239.090088 460.417358 240.485809 C 459.502808 241.881531 457.678955 243.293457 456.364319 243.623413 C 455.023682 243.959869 453.298462 243.662689 452.435669 242.946625 C 451.226471 241.943085 451.042389 240.508911 451.575287 236.243805 C 452.253235 230.817688 452.253235 230.817688 449.092743 232.452026 C 447.354492 233.350922 443.960571 236.764771 441.55069 240.03833 C 439.140839 243.31189 436.432068 247.920197 435.53125 250.279022 C 434.457458 253.090668 433.997833 256.79483 434.196686 261.033905 C 434.5 267.5 434.5 267.5 439.67627 267.799713 C 444.050232 268.052948 445.987701 267.511261 452.17627 264.304993 C 456.204346 262.218079 460.126831 260.350311 460.893005 260.154419 C 461.894958 259.898254 462.120117 260.432678 461.695007 262.058289 C 461.369934 263.301331 459.238159 266.219452 456.957764 268.54306 C 454.677307 270.866638 450.266418 274.026672 447.155762 275.565308 C 443.558014 277.344879 439.498657 278.475342 436 278.672058 Z M 467.338135 276.583557 C 466.327148 276.826904 464.871338 276.615204 464.102905 276.113098 C 463.15564 275.49411 462.88562 274.121521 463.264221 271.850067 C 463.571411 270.007538 464.713379 266.440002 465.801941 263.922241 C 467.739075 259.442017 467.740967 259.319336 465.890625 258.163757 C 464.850769 257.514374 464 256.104218 464 255.03006 C 464 253.599365 465.064514 252.790436 467.980591 252.005219 C 471.817444 250.972076 472.195862 250.471832 478.458191 238.156433 C 482.031494 231.12912 486.755432 222.594086 488.95575 219.189728 C 492.591858 213.563995 493.272095 213 496.421509 213 C 498.868591 213 500.343933 213.652924 501.443298 215.222504 C 502.675781 216.982117 503 220.418732 503 231.722504 C 503 246 503 246 507.5 246 C 510.905579 246 512 246.378479 512 247.556244 C 512 248.439087 510.052856 249.973755 507.5 251.103027 C 503 253.093597 503 253.093597 503 261.391815 C 503 268.16098 502.663025 269.994965 501.171265 271.345001 C 500.165466 272.255249 498.342468 273 497.120239 273 C 495.529602 273 494.486084 272.014282 493.448975 269.532104 C 492.652039 267.624786 492 263.740906 492 260.901276 C 492 255.738312 492 255.738312 488.75 256.304688 C 486.962524 256.61618 483.994873 257.18985 482.155212 257.579468 C 479.223083 258.2005 478.384827 259.164673 475.360901 265.393951 C 473.463684 269.302277 471.295959 273.319244 470.543823 274.320557 C 469.791687 275.321869 468.349121 276.34024 467.338135 276.583557 Z M 516.878967 269.52887 C 515.98645 269.851563 514.471741 269.328888 513.508789 268.365936 C 512.130859 266.987976 511.874695 265.54361 512.301453 261.558441 C 512.599365 258.776306 513.801331 252.225006 514.972473 247 C 516.143616 241.774994 518.041626 233.450012 519.190247 228.5 C 520.338806 223.549988 521.880859 218.006653 522.616943 216.181427 C 523.74231 213.390808 524.396301 212.913513 526.7276 213.181427 C 528.969788 213.439087 530.111328 214.647461 532.696594 219.5 C 534.454773 222.799988 537.57428 229.736969 539.628906 234.915497 C 543.364563 244.330994 543.364563 244.330994 544.661255 241.415497 C 545.374451 239.811981 547.822144 232.200012 550.100586 224.5 C 552.379028 216.799988 554.979492 208.924988 555.879456 207 C 557.107117 204.374023 558.138062 203.5 560.007874 203.5 C 562.465637 203.5 562.498474 203.610352 562.388855 211.5 C 562.315796 216.761444 561.190552 223.950165 559.101685 232.5 C 557.354797 239.649994 555.028748 248.519104 553.932617 252.209137 C 552.836487 255.89917 550.788208 260.286652 549.38092 261.959137 C 547.687256 263.971954 545.904358 265 544.1073 265 C 542.345642 265 540.305786 263.858795 538.298035 261.75 C 536.596191 259.962494 533.398621 254.899994 531.192383 250.5 C 527.44574 243.027954 527.119995 242.664978 526.256836 245 C 525.748535 246.375 524.51947 251.465851 523.525635 256.312988 C 522.531738 261.160095 520.994385 265.984711 520.109314 267.034332 C 519.224182 268.083923 517.770508 269.206482 516.878967 269.52887 Z M 575.402405 264 C 570.66687 264 569.517029 263.583435 566.431641 260.75 C 564.128906 258.635284 562.57196 256.0672 561.974609 253.398315 C 561.409424 250.873016 561.422607 247.029755 562.008972 243.398315 C 562.532776 240.154236 564.570557 234.235565 566.537415 230.245697 C 568.504272 226.255829 572.567566 220.340729 575.566956 217.101044 C 578.566345 213.861328 582.960449 210.298737 585.331604 209.184143 C 587.70282 208.06955 591.18573 206.888062 593.071411 206.558594 C 595.095825 206.204956 597.523865 206.491211 599 207.257568 C 600.456848 208.013977 602.018433 210.131989 602.742493 212.333649 C 603.608765 214.967804 603.705078 217.357513 603.060486 220.226288 C 602.552002 222.489319 601.273376 225.501678 600.219116 226.920441 C 599.164795 228.339203 597.139465 229.639465 595.718384 229.809937 C 593.892822 230.0289 592.794434 229.484406 591.975708 227.95462 C 591.326416 226.741364 591.090515 224.331177 591.439148 222.472687 C 591.818787 220.449158 591.623108 218.885101 590.937378 218.461304 C 590.306946 218.071655 587.954773 219.59082 585.5802 221.921326 C 583.251892 224.20636 579.85321 229.077209 578.027649 232.745392 C 575.50769 237.808807 574.683289 240.800018 574.604187 245.167297 C 574.529053 249.317108 574.966492 251.387482 576.174316 252.59848 C 577.430298 253.857788 578.97113 254.150635 582.342041 253.770691 C 584.814392 253.492035 590.535339 251.359283 595.06134 249.029022 C 602.127502 245.3909 603.214539 245.071503 602.772034 246.763641 C 602.48877 247.847046 601.219971 250.135986 599.952637 251.85022 C 598.685242 253.564423 595.88623 256.133057 593.732544 257.558289 C 591.578918 258.98349 587.795715 261.01593 585.3255 262.074799 C 582.729553 263.187531 578.541931 264 575.402405 264 Z M 614.854431 259.736847 C 609.879395 260.196838 609.077698 260.013763 608.104431 258.19516 C 607.497009 257.06015 607 254.443909 607 252.381348 C 607 250.318756 607.736755 246.005371 608.637268 242.796021 C 610.194885 237.24472 610.184753 236.861664 608.429321 234.921875 C 607.023071 233.368011 606.835327 232.48053 607.640198 231.191467 C 608.221069 230.261169 609.766602 228.957672 611.074707 228.29483 C 612.743347 227.44931 614.140686 225.062073 615.757263 220.29483 C 618.061462 213.5 618.061462 213.5 616.030762 212.128021 C 614.913818 211.373444 614 209.88797 614 208.826996 C 614 207.571411 615.20929 206.3927 617.463806 205.450684 C 619.368835 204.654663 624.20636 203.296021 628.213806 202.431396 C 632.75769 201.45105 638.883057 200.97998 644.48877 201.179688 C 651.880005 201.443115 653.533447 201.792664 653.792236 203.146851 C 654.012268 204.298462 652.812561 205.268311 649.803467 206.37146 C 647.436584 207.239258 642.207153 208.716644 638.182617 209.654602 C 632.202026 211.048431 630.619141 211.835846 629.518311 213.964569 C 628.777527 215.397064 627.852417 218.269684 627.462524 220.348145 C 626.75354 224.127197 626.75354 224.127197 632.62677 223.46637 C 635.857056 223.102905 640.026733 223.202911 641.892761 223.688568 C 645.039124 224.507416 645.16626 224.690857 643.643433 226.213684 C 642.740295 227.116852 639.63855 228.724792 636.750671 229.786926 C 633.862793 230.84903 629.514282 232.343994 627.08728 233.109009 C 623.428894 234.262238 622.466736 235.10675 621.459045 238.049438 C 620.790527 240.001648 619.924805 243.485687 619.535156 245.791779 C 618.828552 249.974396 618.83374 249.983398 621.663391 249.470398 C 623.223511 249.187592 628.046143 248.301483 632.38031 247.501343 C 637.147156 246.621307 640.878662 246.392365 641.82489 246.921875 C 643.078613 247.623474 642.442017 248.397919 638.618347 250.822815 C 635.994446 252.486847 630.84436 255.055817 627.173828 256.531616 C 623.503235 258.007416 617.959473 259.449768 614.854431 259.736847 Z M 657.253906 257.660767 C 654.752136 257.974976 652.749512 257.590942 651.25 256.50943 C 649.32843 255.123505 649 253.971313 649 248.61673 C 649 244.700836 650.139282 238.245728 652.034546 231.423431 C 653.703491 225.415558 656.455078 216.225006 658.149109 211 C 659.84314 205.775024 661.863037 200.487488 662.637634 199.25 C 663.476074 197.910583 665.039185 197 666.5 197 C 668.018066 197 669.58252 197.959351 670.602234 199.515686 C 671.779846 201.312927 672.071838 203.149414 671.624634 205.946106 C 671.280334 208.099213 669.908752 213.829651 668.57666 218.68042 C 667.244568 223.531189 665.018616 231.311188 663.630005 235.96933 C 662.241455 240.627441 661.239563 244.572876 661.403564 244.736938 C 661.567627 244.90097 664.948364 244.352295 668.916321 243.517609 C 672.884277 242.682922 677.424805 242 679.006348 242 C 680.587952 242 682.202148 242.518066 682.593506 243.151276 C 683.009094 243.823761 681.890015 245.464996 679.902527 247.097656 C 678.031128 248.634949 673.014282 251.534454 668.753906 253.541016 C 664.493591 255.547546 659.318604 257.401428 657.253906 257.660767 Z M 492.5 231.5 C 486.875427 241.575012 484.923828 245.540222 484.534302 246.811615 C 483.85791 249.019501 483.998291 249.09259 487.663025 248.440338 C 489.773376 248.064728 491.858582 247.430908 492.296875 247.031799 C 492.735168 246.632721 492.960205 242.974792 492.796875 238.903107 L 492.5 231.5 Z"/>
</svg>
